<svg xmlns="http://www.w3.org/2000/svg" viewBox="0 0 1200 700">
<defs>
<linearGradient id="sky" x1="0" y1="0" x2="0" y2="1">
<stop offset="0%" stop-color="#8ec5fc"/>
<stop offset="100%" stop-color="#e0f2fe"/>
</linearGradient>
<linearGradient id="ground" x1="0" y1="0" x2="0" y2="1">
<stop offset="0%" stop-color="#84cc16"/>
<stop offset="100%" stop-color="#4d7c0f"/>
</linearGradient>
</defs>
<rect width="1200" height="700" fill="url(#sky)"/>
<circle cx="1000" cy="110" r="58" fill="#fde047"/>
<g opacity="0.8">
<circle cx="245" cy="130" r="48" fill="#fff"/>
<circle cx="286" cy="125" r="58" fill="#fff"/>
<circle cx="340" cy="135" r="44" fill="#fff"/>
<circle cx="770" cy="170" r="42" fill="#fff"/>
<circle cx="810" cy="162" r="54" fill="#fff"/>
<circle cx="860" cy="172" r="40" fill="#fff"/>
</g>
<rect y="520" width="1200" height="180" fill="url(#ground)"/>
<path d="M0 550 C160 520, 230 580, 390 550 S700 590, 890 550 S1050 580, 1200 545 L1200 700 L0 700 Z" fill="#65a30d"/>
<g transform="translate(220,220)">
<rect x="0" y="70" width="320" height="210" rx="18" fill="#ffffff" opacity="0.8"/>
<rect x="70" y="0" width="190" height="110" rx="14" fill="#0f766e"/>
<rect x="95" y="25" width="140" height="18" rx="9" fill="#d1fae5"/>
<rect x="95" y="58" width="90" height="16" rx="8" fill="#d1fae5"/>
<rect x="40" y="120" width="62" height="160" fill="#475569"/>
<rect x="220" y="120" width="62" height="160" fill="#475569"/>
<rect x="122" y="160" width="76" height="120" fill="#1d4ed8"/>
</g>
<g transform="translate(650,210)">
<circle cx="105" cy="110" r="56" fill="#fde68a"/>
<g stroke="#f59e0b" stroke-width="8" stroke-linecap="round">
<line x1="105" y1="15" x2="105" y2="0"/>
<line x1="105" y1="220" x2="105" y2="205"/>
<line x1="10" y1="110" x2="0" y2="110"/>
<line x1="210" y1="110" x2="195" y2="110"/>
<line x1="36" y1="41" x2="25" y2="30"/>
<line x1="174" y1="179" x2="185" y2="190"/>
<line x1="174" y1="41" x2="185" y2="30"/>
<line x1="36" y1="179" x2="25" y2="190"/>
</g>
<g transform="translate(120,90)">
<circle cx="95" cy="68" r="42" fill="#ffffff"/>
<circle cx="132" cy="62" r="52" fill="#ffffff"/>
<circle cx="178" cy="72" r="38" fill="#ffffff"/>
<g stroke="#38bdf8" stroke-width="6" stroke-linecap="round">
<line x1="115" y1="130" x2="100" y2="164"/>
<line x1="145" y1="132" x2="130" y2="166"/>
<line x1="175" y1="130" x2="160" y2="164"/>
</g>
</g>
</g>
<text x="600" y="640" text-anchor="middle" font-size="36" font-family="Arial, sans-serif" fill="#14532d">Panel climático local para demostración educativa</text>
</svg>